PathFileType	4	(X/Y/Z)	C:/Users/opensim2020/Desktop/walking_exp_matlab/subject02_walking15_straight_01.trc	
DataRate	CameraRate	NumFrames	NumMarkers	Units	OrigDataRate	OrigDataStartFrame	OrigNumFrames	
100.00	100.00	5	42	mm	100.00	388	165	
Frame#	Time	LFHD			RFHD			LBHD			RBHD			C7			T10			CLAV			STRN			RBAK			LSHO			LUPA			LELB			LFRM			LWRA			LWRB			LFIN			RSHO			RUPA			RELB			RFRM			RWRA			RWRB			RFIN			LASI			RASI			LPSI			RPSI			LTHI			LKNE			LTIB			LANK			LHEE			LTOE			RTHI			RKNE			RTIB			RANK			RHEE			RTOE			*39			*40			*41			
		X1	Y1	Z1	X2	Y2	Z2	X3	Y3	Z3	X4	Y4	Z4	X5	Y5	Z5	X6	Y6	Z6	X7	Y7	Z7	X8	Y8	Z8	X9	Y9	Z9	X10	Y10	Z10	X11	Y11	Z11	X12	Y12	Z12	X13	Y13	Z13	X14	Y14	Z14	X15	Y15	Z15	X16	Y16	Z16	X17	Y17	Z17	X18	Y18	Z18	X19	Y19	Z19	X20	Y20	Z20	X21	Y21	Z21	X22	Y22	Z22	X23	Y23	Z23	X24	Y24	Z24	X25	Y25	Z25	X26	Y26	Z26	X27	Y27	Z27	X28	Y28	Z28	X29	Y29	Z29	X30	Y30	Z30	X31	Y31	Z31	X32	Y32	Z32	X33	Y33	Z33	X34	Y34	Z34	X35	Y35	Z35	X36	Y36	Z36	X37	Y37	Z37	X38	Y38	Z38	X39	Y39	Z39	X40	Y40	Z40	X41	Y41	Z41	X42	Y42	Z42	

1	0.000	1468.93762	-1186.10486	1708.15698	1613.14551	-1203.78003	1694.60095	1449.83386	-1325.92993	1656.07800	1589.92676	-1355.18091	1641.73389	1521.81824	-1410.00427	1518.57166	1519.51001	-1469.97778	1240.39441	1511.33325	-1273.99036	1447.02393	1513.56946	-1223.63049	1275.84827	1579.35510	-1474.78430	1339.46375	1343.37451	-1342.84619	1496.22839	1252.81604	-1347.51001	1300.31299	1228.56116	-1333.11255	1158.45227	1234.81213	-1260.12183	1044.25256	1286.49805	-1153.73047	974.15222	1252.98535	-1189.27087	946.15863	1251.57458	-1137.43066	910.05011	1706.57312	-1343.89844	1476.03162	1792.13123	-1398.01172	1293.62036	1819.28040	-1399.60913	1149.13770	1850.16772	-1377.83691	1034.01367	1847.63550	-1328.33887	907.46094	1867.41003	-1379.18835	903.56415	1884.14246	-1343.81384	843.90918	1375.28674	-1261.11646	969.07678	1627.64563	-1242.28955	969.73102	1465.56311	-1460.36243	1022.37732	1581.32117	-1458.57056	1029.78149	1323.61108	-1309.04431	652.46973	1339.27612	-1315.18555	470.99927	1335.70288	-1466.87646	365.13864	1356.68213	-1608.70813	194.75099	1413.16040	-1649.81873	191.39771	1332.00330	-1524.46362	66.87792	1718.39246	-1295.82471	674.05487	1690.77063	-1276.07520	463.23312	1711.10901	-1320.03735	280.29376	1686.73633	-1345.38428	86.87328	1637.87488	-1384.41394	29.97292	1695.42041	-1193.60388	32.12347	1549.21350	-1283.43945	1792.07263	-3356.81299	2846.17334	1034.06873			 
2	0.010	1472.49048	-1177.95813	1710.92310	1616.51672	-1194.80566	1696.98804	1453.93445	-1317.63770	1658.29675	1594.18335	-1346.30090	1643.78174	1526.85901	-1401.01477	1520.73938	1524.83960	-1461.09766	1242.55859	1515.10205	-1265.22510	1449.15686	1516.59143	-1215.61096	1277.71423	1585.41223	-1465.42847	1341.85522	1347.76001	-1335.78467	1498.10669	1256.97583	-1342.25867	1302.23230	1232.25000	-1329.62390	1160.55212	1233.47156	-1261.57031	1043.38318	1278.96594	-1156.16382	967.87805	1248.03284	-1194.98779	942.39642	1242.91028	-1145.54810	902.89661	1711.05383	-1332.93481	1478.40771	1797.85718	-1384.42810	1295.49927	1824.54468	-1384.75330	1150.99902	1854.76501	-1362.16028	1035.89087	1851.33435	-1312.94543	909.36591	1872.20667	-1363.29138	905.55188	1888.24158	-1327.70959	845.88983	1378.08582	-1253.06482	971.58252	1631.96912	-1232.27332	971.65558	1469.98584	-1451.64246	1024.72522	1585.54016	-1449.89575	1031.22559	1326.61157	-1295.51208	656.01569	1342.47205	-1297.01965	475.18533	1342.02661	-1447.31409	368.19870	1364.76184	-1587.60620	196.36887	1421.46533	-1626.86572	191.02803	1336.44434	-1502.04895	70.30931	1720.86523	-1291.89783	674.40027	1692.45752	-1275.29419	463.19702	1712.03015	-1320.12732	280.24802	1686.99438	-1345.59875	86.78831	1637.87207	-1384.65247	30.04519	1695.31628	-1193.61243	31.88963	1553.24500	-1275.12268	1794.27356	-3356.80908	2846.12573	1034.31213			 
3	0.020	1475.88782	-1169.59961	1712.87366	1619.44189	-1185.60864	1698.89294	1457.93311	-1309.41479	1660.17407	1598.26904	-1337.38599	1645.63257	1531.73999	-1392.01221	1522.67664	1530.14478	-1452.23596	1244.59338	1518.84290	-1255.80872	1450.98889	1520.27893	-1206.32068	1279.78857	1591.30237	-1455.78149	1343.89172	1352.09766	-1328.45850	1499.83264	1260.80933	-1337.66382	1304.34155	1235.43665	-1326.77148	1162.73645	1232.55774	-1262.95068	1043.04773	1272.05627	-1158.95508	962.02960	1242.96790	-1201.09290	938.65857	1234.97803	-1153.89270	896.62476	1715.49536	-1322.07190	1480.91431	1803.41492	-1370.76611	1297.34058	1829.65869	-1369.76062	1152.81238	1859.40491	-1346.46423	1037.83704	1854.70874	-1297.30225	911.16864	1876.94482	-1347.39429	907.72736	1891.25720	-1310.47961	847.21857	1381.59119	-1243.80493	974.55566	1635.83618	-1223.35852	973.22504	1474.26392	-1442.95398	1027.04675	1589.54810	-1441.30566	1032.53833	1329.16907	-1281.76221	659.56775	1345.53455	-1279.32544	479.32236	1347.76758	-1427.96912	370.94116	1372.87061	-1566.04187	196.58389	1429.95593	-1603.69507	190.11604	1341.91895	-1478.41040	72.55836	1723.27539	-1288.21826	674.71509	1694.08154	-1274.76074	463.13034	1713.22729	-1320.97058	280.67068	1687.14502	-1345.94507	86.87846	1637.88477	-1384.48523	29.93860	1695.39502	-1193.83630	32.02340	1557.03638	-1266.80652	1796.32690	-3356.94873	2846.28223	1034.25610			 
4	0.030	1479.00110	-1161.65247	1715.19678	1623.28796	-1177.07300	1701.37244	1461.77441	-1301.25476	1662.02954	1602.30530	-1328.36475	1647.29150	1536.50305	-1382.95068	1524.35779	1535.36548	-1443.25867	1246.37720	1522.39368	-1246.82532	1452.85840	1523.32544	-1197.87000	1281.44714	1597.09167	-1446.33850	1345.97534	1356.37585	-1320.95764	1501.43909	1264.76685	-1332.06384	1305.83215	1238.73889	-1323.33081	1164.53247	1231.75903	-1264.87292	1042.73547	1264.77869	-1163.07104	956.48676	1238.21985	-1207.54456	935.38824	1227.28259	-1163.65369	890.86438	1719.65894	-1311.12805	1483.00806	1808.74219	-1357.03308	1299.02991	1834.58484	-1354.60364	1154.47278	1863.69482	-1330.47473	1039.63928	1858.08093	-1281.36951	912.95697	1881.46899	-1330.87708	909.41992	1895.04358	-1293.62769	849.11047	1385.00720	-1234.78442	977.30396	1639.28906	-1216.69409	973.72131	1478.25378	-1433.86328	1028.84546	1593.46826	-1432.76001	1033.74670	1331.47375	-1268.07727	663.19135	1348.38538	-1261.97473	483.26242	1353.70532	-1408.92004	373.08221	1380.66296	-1543.20483	195.61745	1437.81006	-1580.48071	187.41251	1347.77527	-1453.39246	74.13901	1725.91431	-1284.64502	675.31842	1695.93420	-1274.33362	463.35223	1713.82837	-1321.36914	280.56790	1687.22131	-1346.17358	86.88569	1637.78564	-1384.77234	30.14305	1695.32275	-1193.86121	31.81577	1560.64209	-1258.60620	1798.19177	-3360.37964	2845.31885	1034.26489			 
5	0.040	1482.01074	-1153.43506	1717.31848	1626.70398	-1168.33862	1703.46570	1465.52905	-1292.87939	1663.44043	1606.22852	-1319.39880	1648.79089	1541.12439	-1373.93494	1525.84729	1540.50061	-1434.27246	1247.98059	1525.97925	-1238.19739	1454.38867	1526.47266	-1189.41504	1282.63745	1602.48450	-1436.56641	1347.35388	1360.58643	-1313.21619	1502.82825	1268.46875	-1327.02185	1307.66309	1241.59729	-1320.28857	1166.51477	1230.61084	-1267.50183	1042.51453	1257.52405	-1168.54907	951.30719	1233.57593	-1214.76587	931.96722	1220.42688	-1173.89893	885.58002	1723.64868	-1300.19507	1484.94568	1813.97961	-1343.26538	1300.54419	1839.20923	-1339.32422	1155.81787	1868.26563	-1314.59705	1041.43518	1861.23694	-1265.27466	914.69623	1885.74573	-1314.01245	910.91486	1898.61377	-1276.61426	850.95331	1388.49890	-1225.92529	979.94141	1642.80249	-1210.37097	974.08734	1482.09863	-1424.94934	1030.72156	1597.19861	-1424.15381	1034.76099	1333.55420	-1254.42114	667.09521	1351.19250	-1245.16199	486.83377	1359.75537	-1389.88525	374.24524	1388.26672	-1519.68372	193.28993	1446.57996	-1556.11694	184.85208	1353.87891	-1427.08423	74.56700	1728.35132	-1277.51978	674.71045	1697.52087	-1273.83057	463.24487	1714.67651	-1321.93945	280.67624	1687.37256	-1346.43140	86.86671	1637.78809	-1384.78113	30.09928	1695.23376	-1193.95984	31.70710	1564.11914	-1250.29272	1799.86084	-3357.13403	2845.96484	1034.43079			 
